<svg xmlns="http://www.w3.org/2000/svg" viewBox="0 0 60 50"><defs><style>.cls-1{fill:#3a97fe;}.cls-2{fill:#f0f;}</style></defs><title>couple</title><g id="Layer_1" data-name="Layer 1"><path class="cls-1" d="M46.62,10a5.91,5.91,0,1,1-5.93-5.93A5.92,5.92,0,0,1,46.62,10Z"/><path class="cls-1" d="M53.75,26.93l-5.53-7.41a6.27,6.27,0,0,0-5.08-2.21H38.28a6.19,6.19,0,0,0-5,2.21l-5.53,7.41c-.67.93-.22,2.05,1.07,2.53a2.88,2.88,0,0,0,1.2.23,2.77,2.77,0,0,0,2.28-1l3.43-4.59L35.16,28,34,36.59l-.94,7c-.18,1.16,1,2.21,2.63,2.31H36c1.52,0,2.76-.77,2.9-1.92l1-7.41H41.4l1,7.41a2.75,2.75,0,0,0,2.89,1.92h.27c1.61-.1,2.81-1.15,2.63-2.31l-.84-7L46.22,28l-.49-3.85,3.38,4.59a2.84,2.84,0,0,0,2.28,1,3.25,3.25,0,0,0,1.25-.23c1.25-.48,1.78-1.6,1.11-2.53Z"/><path class="cls-2" d="M25.17,10a5.91,5.91,0,1,1-5.88-5.93A5.88,5.88,0,0,1,25.17,10Z"/><path class="cls-2" d="M32.31,26.93l-5.53-7.41a6.19,6.19,0,0,0-5-2.21H16.88a6.27,6.27,0,0,0-5.08,2.21L6.27,26.93C5.6,27.86,6,29,7.34,29.46a3.2,3.2,0,0,0,1.24.23,2.77,2.77,0,0,0,2.28-1l3.39-4.59L13.76,28,8.85,34.37c-.8,1,.23,2.22,1.79,2.22h2l-1,7c-.14,1.16,1,2.21,2.63,2.31h.27c1.51,0,2.81-.77,2.89-1.92l1-7.41H20L21,44a2.8,2.8,0,0,0,2.9,1.92h.31c1.61-.1,2.77-1.15,2.59-2.31l-.8-7h1.91c1.56,0,2.59-1.19,1.79-2.22L24.77,28l-.49-3.85,3.39,4.59a2.92,2.92,0,0,0,2.32,1,3.15,3.15,0,0,0,1.2-.23c1.3-.48,1.79-1.6,1.12-2.53Z"/></g></svg>