<?xml version="1.0" encoding="UTF-8"?>
<svg id="Layer_1" xmlns="http://www.w3.org/2000/svg" viewBox="0 0 35 50">
  <defs>
    <style>
      .cls-1 {
        fill: #858585;
      }
    </style>
  </defs>
  <path class="cls-1" d="M23.39,10.01c0,3.26-2.63,5.89-5.89,5.89s-5.93-2.63-5.93-5.89,2.63-5.93,5.93-5.93,5.89,2.63,5.89,5.93h0Z"/>
  <path class="cls-1" d="M30.53,26.93l-5.53-7.41c-.98-1.38-2.94-2.21-5.04-2.21h-4.86c-2.14,0-4.06.83-5.08,2.21l-5.53,7.41c-.67.93-.22,2.05,1.07,2.53.4.16.85.22,1.25.22.94,0,1.83-.35,2.27-.99l3.39-4.59-.49,3.85-4.91,6.42c-.8,1.03.22,2.21,1.78,2.21h1.96l-.98,7.02c-.13,1.15,1.03,2.21,2.63,2.31h.27c1.52,0,2.81-.77,2.9-1.92l1.03-7.41h1.56l.98,7.41c.18,1.09,1.47,1.92,2.9,1.92h.31c1.61-.1,2.76-1.15,2.59-2.31l-.8-7.02h1.92c1.56,0,2.59-1.19,1.78-2.21l-4.91-6.42-.49-3.85,3.39,4.59c.45.64,1.43.99,2.32.99.36,0,.8-.06,1.2-.22,1.29-.48,1.78-1.6,1.11-2.53h0Z"/>
</svg>