<?xml version="1.0" encoding="UTF-8"?>
<svg id="Layer_1" xmlns="http://www.w3.org/2000/svg" viewBox="0 0 35 50">
  <defs>
    <style>
      .cls-1 {
        fill: #858585;
      }
    </style>
  </defs>
  <path class="cls-1" d="M23.4,10.01c0,3.26-2.68,5.89-5.93,5.89s-5.89-2.63-5.89-5.89,2.63-5.93,5.89-5.93,5.93,2.63,5.93,5.93h0Z"/>
  <path class="cls-1" d="M30.53,26.93l-5.53-7.41c-1.03-1.38-2.94-2.21-5.08-2.21h-4.86c-2.1,0-4.06.83-5.04,2.21l-5.53,7.41c-.67.93-.22,2.05,1.07,2.53.36.16.8.22,1.2.22.94,0,1.83-.35,2.27-.99l3.43-4.59-.54,3.85-1.16,8.63-.94,7.02c-.18,1.15.98,2.21,2.63,2.31h.27c1.52,0,2.76-.77,2.9-1.92l.98-7.41h1.56l1.03,7.41c.18,1.09,1.43,1.92,2.9,1.92h.27c1.61-.1,2.81-1.15,2.63-2.31l-.85-7.02-1.16-8.63-.49-3.85,3.39,4.59c.45.64,1.38.99,2.27.99.4,0,.85-.06,1.25-.22,1.25-.48,1.78-1.6,1.11-2.53h0Z"/>
</svg>