<?xml version="1.0" encoding="UTF-8"?>
<svg id="Layer_1" xmlns="http://www.w3.org/2000/svg" viewBox="0 0 35 50">
  <defs>
    <style>
      .cls-1 {
        fill: #858585;
      }
    </style>
  </defs>
  <path class="cls-1" d="M23.37,10c0,5.28-6.31,7.92-10.07,4.16-3.68-3.68-1.12-10.08,4.15-10.08,3.28,0,5.91,2.64,5.91,5.92h0Z"/>
  <path class="cls-1" d="M20.01,17.27c-1.6.08-3.28,0-4.87.08-2-.08-3.84.72-5.11,2.16l-5.51,7.44c-.72.96-.24,2.08,1.04,2.56.4.16.88.24,1.28.24.88,0,1.68-.4,2.24-1.04l3.44-4.56-.48,3.84-4.95,6.4c-.8,1.04.24,2.24,1.76,2.24h2l-.96,6.96c-.16,1.2.96,2.24,2.64,2.32h.24c1.52,0,2.8-.72,2.88-1.92l1.04-7.36h1.52l1.04,7.36c.4,1.28,1.6,2.08,2.88,1.92h.24c1.68-.08,2.88-1.12,2.64-2.24l-.8-7.04-1.2-8.64-.48-3.84,3.44,4.56c.56.72,1.36,1.04,2.24,1.04.4,0,.88-.08,1.28-.24,1.2-.48,1.76-1.6,1.12-2.56h-.08l-5.51-7.44c-1.2-1.44-3.04-2.24-4.95-2.24h0Z"/>
</svg>