<svg xmlns="http://www.w3.org/2000/svg" viewBox="0 0 320 70" fill="none">
  <defs>
    <linearGradient id="circleGrad" x1="0%" y1="0%" x2="100%" y2="100%">
      <stop offset="0%" style="stop-color:#F59E0B;stop-opacity:1" />
      <stop offset="100%" style="stop-color:#D97706;stop-opacity:1" />
    </linearGradient>
  </defs>
  
  <!-- Background Circle -->
  <circle cx="35" cy="35" r="30" fill="url(#circleGrad)" stroke="#B45309" stroke-width="2"/>
  
  <!-- Chicken Icon -->
  <g transform="translate(35, 35)">
    <!-- Chicken Body -->
    <ellipse cx="0" cy="6" rx="14" ry="11" fill="#FFFFFF"/>
    <!-- Chicken Head -->
    <circle cx="-6" cy="0" r="7" fill="#FFFFFF"/>
    <!-- Beak -->
    <polygon points="-9,-2 -12,-5 -9,-5" fill="#F59E0B"/>
    <!-- Eye -->
    <circle cx="-7" cy="-1" r="1.8" fill="#1F2937"/>
    <!-- Comb - 3 peaks -->
    <path d="M -6,-9 Q -4,-11 -2,-9" stroke="#D97706" stroke-width="2.5" fill="none" stroke-linecap="round"/>
    <path d="M -2,-9 Q 0,-11 2,-9" stroke="#D97706" stroke-width="2.5" fill="none" stroke-linecap="round"/>
    <path d="M 2,-9 Q 4,-11 6,-9" stroke="#D97706" stroke-width="2.5" fill="none" stroke-linecap="round"/>
    <!-- Wings -->
    <ellipse cx="4" cy="6" rx="6" ry="9" fill="#F9FAFB" opacity="0.85"/>
    <!-- Legs -->
    <line x1="-4" y1="14" x2="-4" y2="18" stroke="#D97706" stroke-width="2.5" stroke-linecap="round"/>
    <line x1="4" y1="14" x2="4" y2="18" stroke="#D97706" stroke-width="2.5" stroke-linecap="round"/>
    <line x1="-4" y1="18" x2="-6" y2="20" stroke="#D97706" stroke-width="2" stroke-linecap="round"/>
    <line x1="4" y1="18" x2="6" y2="20" stroke="#D97706" stroke-width="2" stroke-linecap="round"/>
  </g>
  
  <!-- Text - Using paths for better rendering -->
  <g fill="#1F2937">
    <!-- JB Fresh -->
    <text x="80" y="28" font-family="Arial, sans-serif" font-size="22" font-weight="bold">JB Fresh</text>
    <!-- Chicken & Frozen Food -->
    <text x="80" y="48" font-family="Arial, sans-serif" font-size="13" font-weight="600" fill="#D97706">Chicken &amp; Frozen Food</text>
  </g>
</svg>
